<?xml version="1.0" encoding="utf-8"?>
<!-- Generator: Adobe Illustrator 19.1.0, SVG Export Plug-In . SVG Version: 6.00 Build 0)  -->
<svg version="1.1" id="Calque_1" xmlns="http://www.w3.org/2000/svg" xmlns:xlink="http://www.w3.org/1999/xlink" x="0px" y="0px"
	 viewBox="198 390.5 1237 411" style="enable-background:new 198 390.5 1237 411;" xml:space="preserve">
<style type="text/css">
	.st0{fill:none;}
	.st1{enable-background:new    ;}
	.st2{fill:#878787;}
	.st3{fill:#96CFBD;}
	.st4{opacity:0.4;enable-background:new    ;}
	.st5{fill:#C6C6C6;}
</style>
<rect x="367" y="418.5" class="st0" width="1218" height="140.1"/>
<g class="st1">
	<path class="st2" d="M440.3,513.6h-45l-9.1,27.4h-19l43.1-122.4h15L468.4,541h-19L440.3,513.6z M435.2,497.2L418,443.6h-0.3
		l-17.2,53.6H435.2z"/>
	<path class="st2" d="M482.9,453.8h17v9.2h0.3c5.6-6.9,12.9-10.3,21.9-10.3c7,0,13.4,2.5,19.2,7.6c5.7,5.2,8.8,12.7,9,22.7V541
		h-16.9v-52c0-6.1-1.6-10.8-4.7-14c-3.1-3.3-7.1-4.9-12-4.9c-4.9,0-8.9,1.6-12,4.9c-3.2,3.2-4.8,7.8-4.8,14v52h-16.9V453.8z"/>
	<path class="st2" d="M575.8,418.6h16.9V436h-16.9V418.6z M575.8,453.8h16.9V541h-16.9V453.8z"/>
	<path class="st2" d="M615.8,453.8h17v9.2h0.3c5.8-6.9,13.4-10.3,22.8-10.3c6,0.1,10.9,1.1,14.6,3.1c3.6,2.2,7,5,10,8.3
		c6.8-7.7,16-11.5,27.5-11.4c7.2,0,13.8,2.5,19.8,7.6c5.9,5.2,9,12.7,9.2,22.7V541h-17v-52c0-6.1-1.6-10.8-4.9-14
		c-3.2-3.3-7.4-4.9-12.6-4.9c-5.1,0-9.3,1.6-12.6,4.9c-3.4,3.2-5,7.8-5,14v52H668v-52c0-6.1-1.6-10.8-4.9-14
		c-3.3-3.3-7.5-4.9-12.6-4.9s-9.3,1.6-12.6,4.9c-3.4,3.2-5.1,7.8-5.1,14v52h-17V453.8z"/>
	<path class="st2" d="M807.4,533.3h-0.3c-1.6,3-4,5.1-7.3,6.5c-3.3,1.5-7.8,2.2-13.5,2.2c-9.4-0.1-16.7-2.7-21.8-7.7
		c-5.4-4.9-8-11.2-8-18.9c0-7.3,2.3-13.4,7-18.2c4.7-4.9,11.5-7.4,20.5-7.6h23.5v-9.2c0.1-7.7-5.7-11.4-17.3-11.2
		c-4.2,0-7.6,0.5-10,1.4c-2.5,1.1-4.6,2.9-6,5.4l-13.3-10.5c6.4-8.7,16-12.9,28.5-12.7c10.6-0.1,19.1,2,25.4,6.2
		c6.3,4.4,9.6,11.9,9.7,22.5V541h-16.9V533.3z M807.4,504.1h-20.4c-9.9,0.2-14.8,3.7-14.7,10.5c0,3,1.3,5.5,3.8,7.6
		c2.4,2.3,6.5,3.4,12.1,3.4c7.1,0.1,12.1-0.8,15.1-2.6c2.7-1.8,4-6.1,4-12.6V504.1z"/>
	<path class="st2" d="M850.1,427.3H867v26.5h12.4v13.4H867v50.8c-0.1,4.4,1.9,6.6,6,6.5h6.3V541h-8.9c-6,0-10.8-1.9-14.6-5.7
		c-3.9-3.6-5.8-8.9-5.8-15.8v-52.3h-8.5v-13.4h8.5V427.3z"/>
	<path class="st2" d="M897.4,418.6h16.9V436h-16.9V418.6z M897.4,453.8h16.9V541h-16.9V453.8z"/>
	<path class="st2" d="M933.9,497.3c0-9.2,0.7-16.3,2.2-21.2c1.5-4.8,3.8-8.9,7-12.2c2.3-2.9,5.6-5.5,9.8-7.8
		c4.1-2.2,9.4-3.3,15.9-3.4c6.7,0.1,12.1,1.3,16.2,3.4c4.1,2.3,7.2,4.9,9.4,7.8c3.4,3.3,5.7,7.4,7.1,12.2c1.4,4.9,2,12,2,21.2
		c0,9.2-0.7,16.2-2,21c-1.4,4.8-3.8,9-7.2,12.5c-1.1,1.3-2.4,2.5-4,3.8c-1.4,1.4-3.2,2.6-5.4,3.6c-4.1,2.4-9.5,3.7-16.2,3.8
		c-6.5-0.1-11.7-1.4-15.9-3.8c-4.2-2.2-7.4-4.6-9.8-7.4c-3.1-3.5-5.5-7.7-7-12.5C934.6,513.5,933.9,506.5,933.9,497.3z M986.6,497.5
		c0-6.2-0.3-10.8-0.8-13.7c-0.5-2.8-1.7-5.2-3.3-7.2c-1.2-2-3.1-3.5-5.5-4.6c-2.3-1.2-5.1-1.8-8.2-1.8c-2.9,0-5.5,0.6-8,1.8
		c-2.3,1.1-4.2,2.7-5.7,4.6c-1.5,2.1-2.5,4.5-3.2,7.2c-0.7,2.9-1,7.4-1,13.5c0,6.1,0.3,10.5,1,13.3c0.7,2.9,1.7,5.4,3.2,7.6
		c1.5,1.7,3.4,3.2,5.7,4.5c2.4,1.2,5.1,1.9,8,1.9c3.1,0,5.8-0.6,8.2-1.9c2.4-1.3,4.3-2.8,5.5-4.5c1.7-2.2,2.8-4.7,3.3-7.6
		C986.3,507.8,986.6,503.5,986.6,497.5z"/>
	<path class="st2" d="M1024.1,453.8h17v9.2h0.3c5.6-6.9,12.9-10.3,21.9-10.3c7,0,13.4,2.5,19.2,7.6c5.7,5.2,8.8,12.7,9,22.7V541
		h-16.9v-52c0-6.1-1.6-10.8-4.7-14c-3.1-3.3-7.1-4.9-12-4.9c-4.9,0-8.9,1.6-12,4.9c-3.2,3.2-4.8,7.8-4.8,14v52h-16.9V453.8z"/>
	<path class="st2" d="M1118.9,514.4c6.9,7.5,15.8,11.2,26.8,11.2c4.9,0,8.9-1,12-2.9c3.1-2,4.6-4.7,4.6-8.2c0-3.1-0.9-5.3-2.8-6.6
		c-1.9-1.3-4.4-2-7.6-2.1l-15-1.3c-7.1-0.7-12.9-3.1-17.4-7.4c-4.6-4.1-6.9-9.9-7-17.4c0.1-9,3.2-15.7,9.2-20.2
		c5.9-4.5,13.3-6.7,22.3-6.7c3.9,0,7.4,0.3,10.5,0.8c3.1,0.6,6,1.3,8.7,2.4c5.2,2.2,9.9,5.1,14,8.8l-10.5,12.7
		c-3.3-2.4-6.7-4.4-10.4-6c-3.6-1.4-7.7-2.1-12.4-2.1c-5.3,0-9,1-11.2,2.9c-2.2,2-3.3,4.5-3.3,7.6c-0.1,2,0.7,3.7,2.5,5.1
		c1.6,1.6,4.5,2.7,8.6,3.1l14,1.1c8.8,0.7,15.2,3.4,19.1,8.2c3.6,4.7,5.5,10.7,5.5,17.9c-0.1,8.5-3.4,15-10,19.6
		c-6.5,4.7-14.8,7.1-25,7.2c-13.8,0-26.2-5.2-37.2-15.6L1118.9,514.4z"/>
</g>
<rect x="244" y="551.4" class="st0" width="901" height="233.1"/>
<g class="st1">
	<path class="st2" d="M276.7,567.9h-32.5v-16.5h83v16.5h-32.5v106h-18V567.9z"/>
	<path class="st2" d="M325.2,586.8h16.9v9.2h0.4c5.6-6.9,12.9-10.3,22-10.3c6.8,0.1,12.7,2.3,17.7,6.7l-12.4,15.1
		c-3.6-2.9-7.3-4.4-11.2-4.4c-4.3,0-8.1,1.5-11.2,4.4c-3.5,2.9-5.3,7.5-5.4,13.9v52.6h-16.9V586.8z"/>
	<path class="st2" d="M433.4,666.2h-0.3c-1.6,3-4,5.1-7.3,6.5c-3.3,1.5-7.8,2.2-13.5,2.2c-9.4-0.1-16.7-2.7-21.8-7.7
		c-5.4-4.9-8-11.2-8-18.9c0-7.3,2.3-13.4,7-18.2c4.7-4.9,11.5-7.4,20.5-7.6h23.5v-9.2c0.1-7.7-5.7-11.4-17.3-11.2
		c-4.2,0-7.6,0.5-10,1.4c-2.5,1.1-4.6,2.9-6,5.4l-13.3-10.5c6.4-8.7,16-12.9,28.5-12.7c10.6-0.1,19.1,2,25.4,6.2
		c6.3,4.4,9.6,11.9,9.7,22.5v59.5h-16.9V666.2z M433.4,637H413c-9.9,0.2-14.8,3.7-14.7,10.5c0,3,1.3,5.5,3.8,7.6
		c2.4,2.3,6.5,3.4,12.1,3.4c7.1,0.1,12.1-0.8,15.1-2.6c2.7-1.8,4-6.1,4-12.6V637z"/>
	<path class="st2" d="M475,586.8h17v9.2h0.3c5.6-6.9,12.9-10.3,21.9-10.3c7,0,13.4,2.5,19.2,7.6c5.7,5.2,8.8,12.7,9,22.7v57.9h-16.9
		v-52c0-6.1-1.6-10.8-4.7-14c-3.1-3.3-7.1-4.9-12-4.9c-4.9,0-8.9,1.6-12,4.9c-3.2,3.2-4.8,7.8-4.8,14v52H475V586.8z"/>
	<path class="st2" d="M569.9,647.3c6.9,7.5,15.8,11.2,26.8,11.2c4.9,0,8.9-1,12-2.9c3.1-2,4.6-4.7,4.6-8.2c0-3.1-0.9-5.3-2.8-6.6
		c-1.9-1.3-4.4-2-7.6-2.1l-15-1.3c-7.1-0.7-12.9-3.1-17.4-7.4c-4.6-4.1-6.9-9.9-7-17.4c0.1-9,3.2-15.7,9.2-20.2
		c5.9-4.5,13.3-6.7,22.3-6.7c3.9,0,7.4,0.3,10.5,0.8c3.1,0.6,6,1.3,8.7,2.4c5.2,2.2,9.9,5.1,14,8.8l-10.5,12.7
		c-3.3-2.4-6.7-4.4-10.4-6c-3.6-1.4-7.7-2.1-12.4-2.1c-5.3,0-9,1-11.2,2.9c-2.2,2-3.3,4.5-3.3,7.6c-0.1,2,0.7,3.7,2.5,5.1
		c1.6,1.6,4.5,2.7,8.6,3.1l14,1.1c8.8,0.7,15.2,3.4,19.1,8.2c3.6,4.7,5.5,10.7,5.5,17.9c-0.1,8.5-3.4,15-10,19.6
		c-6.5,4.7-14.8,7.1-25,7.2c-13.8,0-26.2-5.2-37.2-15.6L569.9,647.3z"/>
	<path class="st2" d="M650.5,551.5h16.9V569h-16.9V551.5z M650.5,586.8h16.9v87.2h-16.9V586.8z"/>
	<path class="st2" d="M692.2,560.2h16.9v26.5h12.4v13.4h-12.4V651c-0.1,4.4,1.9,6.6,6,6.5h6.3v16.5h-8.9c-6,0-10.8-1.9-14.6-5.7
		c-3.9-3.6-5.8-8.9-5.8-15.8v-52.3h-8.5v-13.4h8.5V560.2z"/>
	<path class="st2" d="M739.5,551.5h16.9V569h-16.9V551.5z M739.5,586.8h16.9v87.2h-16.9V586.8z"/>
	<path class="st2" d="M776,630.3c0-9.2,0.7-16.3,2.2-21.2c1.5-4.8,3.8-8.9,7-12.2c2.3-2.9,5.6-5.5,9.8-7.8c4.1-2.2,9.4-3.3,15.9-3.4
		c6.7,0.1,12.1,1.3,16.2,3.4c4.1,2.3,7.2,4.9,9.4,7.8c3.4,3.3,5.7,7.4,7.1,12.2c1.4,4.9,2,12,2,21.2c0,9.2-0.7,16.2-2,21
		c-1.4,4.8-3.8,9-7.2,12.5c-1.1,1.3-2.4,2.5-4,3.8c-1.4,1.4-3.2,2.6-5.4,3.6c-4.1,2.4-9.5,3.7-16.2,3.8c-6.5-0.1-11.7-1.4-15.9-3.8
		c-4.2-2.2-7.4-4.6-9.8-7.4c-3.1-3.5-5.5-7.7-7-12.5C776.8,646.5,776,639.5,776,630.3z M828.7,630.4c0-6.2-0.3-10.8-0.8-13.7
		c-0.5-2.8-1.7-5.2-3.3-7.2c-1.2-2-3.1-3.5-5.5-4.6c-2.3-1.2-5.1-1.8-8.2-1.8c-2.9,0-5.5,0.6-8,1.8c-2.3,1.1-4.2,2.7-5.7,4.6
		c-1.5,2.1-2.5,4.5-3.2,7.2c-0.7,2.9-1,7.4-1,13.5c0,6.1,0.3,10.5,1,13.3c0.7,2.9,1.7,5.4,3.2,7.6c1.5,1.7,3.4,3.2,5.7,4.5
		c2.4,1.2,5.1,1.9,8,1.9c3.1,0,5.8-0.6,8.2-1.9c2.4-1.3,4.3-2.8,5.5-4.5c1.7-2.2,2.8-4.7,3.3-7.6
		C828.4,640.8,828.7,636.4,828.7,630.4z"/>
	<path class="st2" d="M866.2,586.8h17v9.2h0.3c5.6-6.9,12.9-10.3,21.9-10.3c7,0,13.4,2.5,19.2,7.6c5.7,5.2,8.8,12.7,9,22.7v57.9
		h-16.9v-52c0-6.1-1.6-10.8-4.7-14c-3.1-3.3-7.1-4.9-12-4.9c-4.9,0-8.9,1.6-12,4.9c-3.2,3.2-4.8,7.8-4.8,14v52h-16.9V586.8z"/>
	<path class="st2" d="M961.1,647.3c6.9,7.5,15.8,11.2,26.8,11.2c4.9,0,8.9-1,12-2.9c3.1-2,4.6-4.7,4.6-8.2c0-3.1-0.9-5.3-2.8-6.6
		c-1.9-1.3-4.4-2-7.6-2.1l-15-1.3c-7.1-0.7-12.9-3.1-17.4-7.4c-4.6-4.1-6.9-9.9-7-17.4c0.1-9,3.2-15.7,9.2-20.2
		c5.9-4.5,13.3-6.7,22.3-6.7c3.9,0,7.4,0.3,10.5,0.8c3.1,0.6,6,1.3,8.7,2.4c5.2,2.2,9.9,5.1,14,8.8l-10.5,12.7
		c-3.3-2.4-6.7-4.4-10.4-6c-3.6-1.4-7.7-2.1-12.4-2.1c-5.3,0-9,1-11.2,2.9c-2.2,2-3.3,4.5-3.3,7.6c-0.1,2,0.7,3.7,2.5,5.1
		c1.6,1.6,4.5,2.7,8.6,3.1l14,1.1c8.8,0.7,15.2,3.4,19.1,8.2c3.6,4.7,5.5,10.7,5.5,17.9c-0.1,8.5-3.4,15-10,19.6
		c-6.5,4.7-14.8,7.1-25,7.2c-13.8,0-26.2-5.2-37.2-15.6L961.1,647.3z"/>
</g>
<rect x="266" y="437.4" class="st0" width="100" height="107.1"/>
<g class="st1">
	<path class="st3" d="M268.2,509.7c0-6.1,1.4-11.2,4.1-15.4c2.7-4.1,6.4-7.7,10.9-10.6c-2.3-2.5-4.2-5.4-5.7-8.7
		c-1.5-3.3-2.2-6.9-2.2-10.8c0-4.2,0.8-8.1,2.4-11.7c1.6-3.6,3.8-6.7,6.6-9.3c2.8-2.6,6.1-4.6,9.9-6.1c3.8-1.4,7.9-2.2,12.3-2.2
		c4.9,0,9.3,0.8,13.4,2.2c4,1.5,7.4,3.6,10.3,6.2c2.9,2.7,5,5.8,6.5,9.4c1.5,3.7,2.2,7.6,2.2,11.9c0,5.1-1.4,9.6-4,13.3
		c-2.7,3.8-6,7.1-9.8,9.9l13.6,11.4c1.2-1.2,2.4-2.4,3.5-3.8c1.1-1.3,2.6-3,4.3-5.2l20.1,17.1c-2.2,3-4.6,5.8-7,8.5
		c-2.5,2.7-5.2,5.2-8.1,7.6c-2.5,2-5.3,4-8.3,5.9c-3.1,1.9-6.4,3.7-10,5.2c-3.7,1.5-7.6,2.7-11.8,3.7c-4.2,0.9-8.7,1.4-13.4,1.4
		c-6.9,0-12.9-0.8-17.9-2.3c-5-1.5-9.1-3.7-12.4-6.4c-3.3-2.7-5.7-5.9-7.2-9.6C269,518,268.2,514,268.2,509.7z M331.4,506
		l-22.9-19.2c5.5-3,9.9-6.2,13.2-9.7c3.3-3.5,5-7.7,5-12.7c0-2.6-0.5-5-1.6-7.2c-1-2.2-2.5-4.1-4.3-5.6c-1.8-1.5-3.9-2.7-6.4-3.6
		c-2.5-0.8-5.1-1.3-7.9-1.3c-2.4,0-4.8,0.4-7,1.3c-2.3,0.9-4.4,2.1-6.2,3.6c-1.8,1.6-3.2,3.4-4.3,5.6c-1,2.2-1.6,4.7-1.6,7.3
		c0,3.7,1,7,3,9.8c2,2.9,4.7,5.7,8.1,8.5l3.8,3.1l-3.6,1.8c-2.2,1.1-4.3,2.3-6.2,3.7c-2,1.3-3.6,2.8-5,4.5c-1.4,1.6-2.5,3.5-3.4,5.5
		c-0.9,2.1-1.3,4.3-1.3,6.8c0,3.3,0.7,6.2,2.1,8.7c1.4,2.5,3.2,4.6,5.6,6.2c2.3,1.6,4.9,2.8,7.9,3.6c3,0.8,6.1,1.2,9.3,1.2
		c6.9,0,13-1.1,18.4-3.3c5.4-2.2,10-4.7,13.8-7.3c4.4-3.1,8.3-6.7,11.8-10.8l-2.8-1.9c-1.6,1.9-3.3,3.7-5.1,5.4
		c-1.8,1.7-3.7,3.3-5.7,4.7c-3.5,2.5-7.8,4.8-12.9,6.8c-5.1,2.1-11,3.1-17.5,3.1c-2.4,0-4.9-0.3-7.4-0.8c-2.5-0.5-4.8-1.4-6.8-2.7
		c-2.1-1.2-3.8-2.9-5.1-5c-1.3-2.1-2-4.6-2-7.6c0-4.3,1.2-7.8,3.8-10.4c2.5-2.6,6-5.1,10.5-7.3l4.5-2.2l23.4,19.5L331.4,506z
		 M322.7,464.4c0,4.8-1.5,8.6-4.5,11.5c-3,2.9-7.2,5.7-12.6,8.5l-4.6-3.9c-4-3.3-6.6-6.2-7.8-8.6c-1.2-2.4-1.8-4.8-1.8-7.1
		c0-4.2,1.4-7.7,4.2-10.3c2.8-2.7,6.5-4.1,11-4.1c2,0,4,0.3,5.9,0.9c2,0.6,3.7,1.5,5.2,2.7s2.7,2.7,3.7,4.4
		C322.2,460.1,322.7,462.1,322.7,464.4z M308.8,514.7c1.5,0,3-0.1,4.6-0.4c1.5-0.2,3-0.6,4.4-1.1l-14.5-12.3
		c-2.5,1.9-3.8,4.2-3.8,6.8c0,2.4,0.9,4.2,2.8,5.3C304.2,514.1,306.4,514.7,308.8,514.7z M301.4,463.8c0,1.4,0.3,2.7,1,4
		c0.6,1.3,1.9,2.7,3.8,4.4c2.3-1.4,3.9-2.7,4.9-4c1-1.2,1.5-2.7,1.5-4.4c0-3.7-1.9-5.5-5.5-5.5c-1.7,0-3.1,0.5-4.1,1.6
		C301.9,460.9,301.4,462.2,301.4,463.8z"/>
</g>
<rect x="934.3" y="565.5" class="st0" width="887.7" height="438.1"/>
<g class="st4">
	<path class="st5" d="M940.3,665.7c0-16,2.8-30.4,8.4-43.3c5.6-12.9,13.2-23.9,22.8-33.2c9.6-9.2,20.8-16.2,33.6-21.1
		c12.8-4.9,26.4-7.4,40.8-7.4c11.4,0,21.5,1.1,30.4,3.3c8.9,2.2,16.5,4.7,23,7.5c7.4,3.2,13.8,6.7,19.2,10.5l-31.5,55.5
		c-3.2-2.4-6.7-4.7-10.5-6.9c-3.4-1.6-7.5-3.2-12.2-4.7c-4.7-1.5-10-2.2-16-2.2c-6.2,0-11.9,1.1-17.1,3.3c-5.2,2.2-9.8,5.2-13.7,9
		c-3.9,3.8-7,8.2-9.1,13.3c-2.2,5.1-3.3,10.6-3.3,16.3c0,5.8,1.1,11.2,3.5,16.4c2.3,5.1,5.4,9.6,9.5,13.3c4,3.8,8.7,6.8,14.1,9
		c5.4,2.2,11.3,3.3,17.7,3.3c6.4,0,12.1-0.8,17.1-2.4c5-1.6,9.2-3.4,12.6-5.4c4-2.2,7.5-4.8,10.5-7.8l31.5,55.5
		c-5.4,4.4-11.8,8.3-19.2,11.7c-6.4,2.8-14.1,5.4-23.1,7.8s-19.3,3.6-30.9,3.6c-15.6,0-30-2.5-43.2-7.6
		c-13.2-5.1-24.6-12.2-34.2-21.5c-9.6-9.2-17.1-20.2-22.5-33.2C943,695.6,940.3,681.3,940.3,665.7z M978.1,665.7
		c0-9.6,1.7-18.6,5-27c3.3-8.4,8-15.7,14-21.9c6-6.2,13.3-11.1,21.9-14.7c8.6-3.6,18.2-5.4,28.8-5.4c5.2,0,9.8,0.4,14,1.1
		c4.1,0.7,7.5,1.6,10.3,2.5c3.4,1,6.3,2.2,8.7,3.6l4.2-7.2c-3.2-1.4-6.6-2.7-10.2-3.9c-3.4-1-7.3-1.9-11.7-2.7
		c-4.4-0.8-9.5-1.2-15.3-1.2c-10.2,0-20,1.8-29.2,5.4c-9.3,3.6-17.5,8.8-24.6,15.5c-7.1,6.7-12.8,14.8-17.1,24.3
		c-4.3,9.5-6.5,20.1-6.5,31.6c0,11.8,2,22.4,6.2,31.8c4.1,9.4,9.8,17.5,17,24.1c7.2,6.7,15.6,11.9,25.2,15.5
		c9.6,3.6,19.8,5.4,30.6,5.4c6,0,11.4-0.5,16.2-1.5c4.8-1,8.9-2.1,12.3-3.3c3.8-1.4,7.2-3,10.2-4.8l-4.2-7.2c-2.6,1.8-5.6,3.3-9,4.5
		c-3,1.2-6.6,2.2-10.8,3.2c-4.2,0.9-9.1,1.3-14.7,1.3c-11,0-20.9-1.8-29.7-5.4c-8.8-3.6-16.3-8.5-22.3-14.7
		c-6.1-6.2-10.8-13.5-14.1-21.9C979.8,684.3,978.1,675.3,978.1,665.7z"/>
	<path class="st5" d="M1126.6,703.5c4.4,1.4,9,2.5,13.8,3.3c4,1,8.6,1.8,13.7,2.4c5.1,0.6,10.2,0.9,15.5,0.9
		c9.2,0,13.8-3.4,13.8-10.2c0-2.6-1.4-5.2-4.2-8c-2.8-2.7-6.4-5.7-10.6-9c-4.3-3.3-8.9-6.9-13.8-10.9c-4.9-4-9.5-8.6-13.8-13.8
		c-4.3-5.2-7.9-11-10.6-17.5c-2.8-6.5-4.2-14-4.2-22.3c0-9.4,1.7-17.7,5.1-24.9c3.4-7.2,8.1-13.2,14.1-18s13-8.4,21.1-11
		c8.1-2.5,16.7-3.8,26-3.8c4.8,0,9.6,0.3,14.4,0.8c4.8,0.5,9.1,1,12.9,1.4c4.4,0.6,8.7,1.2,12.9,1.8v56.1c-1.6-0.2-3.4-0.4-5.4-0.6
		c-1.6-0.2-3.4-0.4-5.4-0.6c-2-0.2-4.1-0.3-6.3-0.3c-1.2,0-2.7,0.1-4.5,0.2c-1.8,0.1-3.5,0.4-5.1,0.8c-1.6,0.4-3,1.1-4.2,2.1
		c-1.2,1-1.8,2.4-1.8,4.2c0,1.6,1.3,3.6,4,6c2.7,2.4,6,5.2,9.9,8.4c3.9,3.2,8.2,6.9,12.9,11.1c4.7,4.2,9,9,12.9,14.4
		c3.9,5.4,7.2,11.5,9.9,18.3c2.7,6.8,4,14.4,4,22.8c0,8.8-1.4,17.1-4.2,24.8c-2.8,7.7-7.2,14.4-13,20.1
		c-5.9,5.7-13.5,10.2-22.7,13.5c-9.2,3.3-20.1,4.9-32.7,4.9c-7.6,0-14.7-0.4-21.1-1c-6.5-0.7-12.3-1.6-17.2-2.5
		c-5.8-1-11.1-2.2-15.9-3.6V703.5z M1151.8,739.5c2.8,0.6,5.8,1.1,9,1.5c2.8,0.4,5.7,0.8,8.8,1c3.1,0.3,6.2,0.5,9.5,0.5
		c5.6,0,11-0.6,16.4-2c5.3-1.3,10-3.5,14.2-6.5c4.2-3,7.5-6.8,10-11.5c2.5-4.7,3.8-10.4,3.8-17.2c0-5.8-1.5-11.3-4.4-16.5
		c-2.9-5.2-6.6-10.2-11.1-15s-9.3-9.4-14.4-13.8c-5.1-4.4-9.9-8.9-14.4-13.4s-8.2-9-11.1-13.5c-2.9-4.5-4.3-9.1-4.3-14
		c0-7.2,2.3-12.8,6.9-16.6c4.6-3.9,12-5.9,22.2-5.9c1.6,0,3.2,0.1,5,0.2c1.7,0.1,3.3,0.3,5,0.5c1.6,0.2,3.2,0.3,4.8,0.3v-7.8
		c-1.4,0-2.9-0.1-4.5-0.3c-1.4-0.2-3-0.3-4.6-0.5c-1.7-0.1-3.5-0.2-5.2-0.2c-10.8,0-19.7,2.5-26.7,7.4c-7,4.9-10.5,12.6-10.5,22.9
		c0,5.6,1.4,10.9,4.3,15.8c2.9,4.9,6.6,9.7,11.1,14.4c4.5,4.7,9.3,9.3,14.4,13.7c5.1,4.4,9.9,8.8,14.4,13.3s8.2,9.2,11.1,14
		c2.9,4.8,4.4,9.8,4.4,15c0,9.6-3.3,16.9-9.8,21.9c-6.5,5-15.5,7.5-26.9,7.5c-6.8,0-13-0.5-18.6-1.5c-3-0.4-5.9-0.9-8.7-1.5V739.5z"
		/>
	<path class="st5" d="M1260.1,703.5c4.4,1.4,9,2.5,13.8,3.3c4,1,8.5,1.8,13.6,2.4c5.1,0.6,10.2,0.9,15.5,0.9
		c9.2,0,13.8-3.4,13.8-10.2c0-2.6-1.4-5.2-4.2-8c-2.8-2.7-6.4-5.7-10.7-9c-4.3-3.3-8.9-6.9-13.8-10.9c-4.9-4-9.5-8.6-13.8-13.8
		c-4.3-5.2-7.9-11-10.7-17.5c-2.8-6.5-4.2-14-4.2-22.3c0-9.4,1.7-17.7,5.1-24.9c3.4-7.2,8.1-13.2,14.1-18s13-8.4,21.2-11
		c8.1-2.5,16.7-3.8,25.9-3.8c4.8,0,9.6,0.3,14.4,0.8c4.8,0.5,9.1,1,12.9,1.4c4.4,0.6,8.7,1.2,12.9,1.8v56.1
		c-1.6-0.2-3.4-0.4-5.4-0.6c-1.6-0.2-3.4-0.4-5.4-0.6c-2-0.2-4.1-0.3-6.3-0.3c-1.2,0-2.7,0.1-4.5,0.2c-1.8,0.1-3.5,0.4-5.1,0.8
		c-1.6,0.4-3,1.1-4.2,2.1c-1.2,1-1.8,2.4-1.8,4.2c0,1.6,1.4,3.6,4.1,6c2.7,2.4,6,5.2,9.9,8.4c3.9,3.2,8.2,6.9,12.9,11.1
		c4.7,4.2,9,9,12.9,14.4c3.9,5.4,7.2,11.5,9.9,18.3c2.7,6.8,4,14.4,4,22.8c0,8.8-1.4,17.1-4.2,24.8c-2.8,7.7-7.2,14.4-13,20.1
		c-5.9,5.7-13.5,10.2-22.6,13.5c-9.2,3.3-20.1,4.9-32.7,4.9c-7.6,0-14.7-0.4-21.2-1c-6.5-0.7-12.3-1.6-17.2-2.5
		c-5.8-1-11.1-2.2-15.9-3.6V703.5z M1285.3,739.5c2.8,0.6,5.8,1.1,9,1.5c2.8,0.4,5.7,0.8,8.9,1c3.1,0.3,6.2,0.5,9.5,0.5
		c5.6,0,11-0.6,16.3-2c5.3-1.3,10-3.5,14.2-6.5s7.5-6.8,10-11.5c2.5-4.7,3.8-10.4,3.8-17.2c0-5.8-1.5-11.3-4.3-16.5
		c-2.9-5.2-6.6-10.2-11.1-15s-9.3-9.4-14.4-13.8c-5.1-4.4-9.9-8.9-14.4-13.4s-8.2-9-11.1-13.5c-2.9-4.5-4.4-9.1-4.4-14
		c0-7.2,2.3-12.8,6.9-16.6c4.6-3.9,12-5.9,22.2-5.9c1.6,0,3.2,0.1,5,0.2c1.7,0.1,3.3,0.3,4.9,0.5c1.6,0.2,3.2,0.3,4.8,0.3v-7.8
		c-1.4,0-2.9-0.1-4.5-0.3c-1.4-0.2-3-0.3-4.7-0.5c-1.7-0.1-3.5-0.2-5.2-0.2c-10.8,0-19.7,2.5-26.7,7.4c-7,4.9-10.5,12.6-10.5,22.9
		c0,5.6,1.4,10.9,4.4,15.8c2.9,4.9,6.6,9.7,11.1,14.4c4.5,4.7,9.3,9.3,14.4,13.7c5.1,4.4,9.9,8.8,14.4,13.3s8.2,9.2,11.1,14
		c2.9,4.8,4.3,9.8,4.3,15c0,9.6-3.3,16.9-9.8,21.9c-6.5,5-15.5,7.5-26.8,7.5c-6.8,0-13-0.5-18.6-1.5c-3-0.4-5.9-0.9-8.7-1.5V739.5z"
		/>
</g>
</svg>
