<?xml version="1.0" encoding="utf-8"?>
<!-- Generator: Adobe Illustrator 19.1.0, SVG Export Plug-In . SVG Version: 6.00 Build 0)  -->
<svg version="1.1" id="Calque_1" xmlns="http://www.w3.org/2000/svg" xmlns:xlink="http://www.w3.org/1999/xlink" x="0px" y="0px"
	 viewBox="29 471.5 899 248" style="enable-background:new 29 471.5 899 248;" xml:space="preserve">
<style type="text/css">
	.st0{fill:#F5F5F5;}
	.st1{fill:#EB594C;}
	.st2{opacity:0.6;fill:#EB594C;enable-background:new    ;}
</style>
<g>
	<path class="st0" d="M46,505.4h14.4v84.9c0,3.4,1.8,5.1,5.4,5.1h5v14h-6.4c-5.2,0-9.6-1.3-13-4c-3.6-2.7-5.4-7.4-5.4-13.8
		C46,591.6,46,505.4,46,505.4z"/>
	<path class="st0" d="M94.4,577.9c0,5.9,1.7,10.5,5,13.6c3.1,3.1,7.1,4.7,12.2,4.7c5.9,0,11.1-2.4,15.7-7.2l10.4,9.2
		c-7.3,8.1-15.9,12.1-25.8,12c-3.8,0-7.5-0.6-11-1.7c-1.8-0.6-3.5-1.4-5.2-2.5c-1.8-0.9-3.5-2-5-3.4c-3-2.8-5.5-6.6-7.4-11.6
		c-2.1-4.8-3.1-10.9-3.1-18.5c0-7.3,0.9-13.4,2.7-18.3c1.8-4.9,4.1-8.8,6.9-11.7c2.9-2.9,6.1-5,9.6-6.3s6.9-1.9,10.4-1.9
		c8.2,0.1,15.1,2.9,20.8,8.3c5.8,5.6,8.7,13.2,8.8,23v12.3H94.4L94.4,577.9z M124.8,565.7c-0.2-5.8-1.7-10.2-4.5-13.1
		c-2.8-2.8-6.3-4.2-10.7-4.2c-4.3,0-7.9,1.4-10.7,4.2c-2.7,3-4.2,7.3-4.5,13.1H124.8z"/>
	<path class="st0" d="M158.7,586.7c5.9,6.3,13.4,9.5,22.7,9.5c4.2,0,7.5-0.8,10.2-2.5c2.6-1.7,3.9-4,3.9-7c0-2.7-0.8-4.5-2.4-5.6
		c-1.6-1.1-3.8-1.7-6.4-1.8l-12.7-1.1c-6-0.6-11-2.7-14.7-6.3c-3.9-3.5-5.9-8.4-6-14.8c0.1-7.6,2.7-13.3,7.8-17.1
		c5-3.8,11.3-5.7,18.9-5.7c3.3,0,6.3,0.2,8.9,0.6c2.6,0.5,5.1,1.1,7.4,2c4.4,1.9,8.4,4.3,11.9,7.5l-8.9,10.8
		c-2.8-2.1-5.7-3.8-8.8-5.1c-3-1.2-6.6-1.8-10.5-1.8c-4.5,0-7.7,0.8-9.5,2.5c-1.9,1.7-2.8,3.8-2.8,6.4c-0.1,1.7,0.6,3.1,2.1,4.4
		c1.4,1.4,3.8,2.3,7.3,2.6l11.9,0.9c7.5,0.6,12.9,2.9,16.2,7c3.1,4,4.6,9.1,4.6,15.2c-0.1,7.2-2.9,12.7-8.5,16.6
		c-5.5,4-12.6,6-21.2,6.1c-11.7,0-22.2-4.4-31.6-13.3L158.7,586.7z"/>
	<path class="st0" d="M261.7,535.3h14.4v7.8h0.3c4.7-5.8,11-8.8,18.7-8.8c5.8,0.1,10.8,2,15.1,5.7l-10.5,12.9
		c-3-2.5-6.2-3.7-9.5-3.7c-3.7,0-6.8,1.2-9.5,3.7c-3,2.4-4.5,6.4-4.6,11.8v44.6h-14.4V535.3L261.7,535.3z"/>
	<path class="st0" d="M329.4,577.9c0,5.9,1.7,10.5,5,13.6c3.1,3.1,7.1,4.7,12.2,4.7c5.9,0,11.1-2.4,15.7-7.2l10.4,9.2
		c-7.3,8.1-15.9,12.1-25.8,12c-3.8,0-7.5-0.6-11-1.7c-1.8-0.6-3.5-1.4-5.2-2.5c-1.8-0.9-3.5-2-5-3.4c-3-2.8-5.5-6.6-7.4-11.6
		c-2.1-4.8-3.1-10.9-3.1-18.5c0-7.3,0.9-13.4,2.7-18.3c1.8-4.9,4.1-8.8,6.9-11.7c2.9-2.9,6.1-5,9.6-6.3s6.9-1.9,10.4-1.9
		c8.2,0.1,15.1,2.9,20.8,8.3c5.8,5.6,8.7,13.2,8.8,23v12.3H329.4L329.4,577.9z M359.7,565.7c-0.2-5.8-1.7-10.2-4.5-13.1
		c-2.8-2.8-6.3-4.2-10.7-4.2c-4.3,0-7.9,1.4-10.7,4.2c-2.7,3-4.2,7.3-4.5,13.1H359.7z M347.8,504.5h19l-20.1,21.2h-11.9L347.8,504.5
		z"/>
	<path class="st0" d="M393.9,546.7h-7.3v-11.4h7.3v-9.8c0-7,1.9-12.2,5.7-15.5c3.7-3.1,8.3-4.6,13.9-4.6h9.3v14h-8.2
		c-4.3-0.1-6.4,1.9-6.2,6.2v9.8h14.5v11.4h-14.5v62.6H394L393.9,546.7L393.9,546.7z"/>
	<path class="st0" d="M443,577.9c0,5.9,1.7,10.5,5,13.6c3.1,3.1,7.1,4.7,12.2,4.7c5.9,0,11.1-2.4,15.7-7.2l10.4,9.2
		c-7.3,8.1-15.9,12.1-25.8,12c-3.8,0-7.5-0.6-11-1.7c-1.8-0.6-3.5-1.4-5.2-2.5c-1.8-0.9-3.5-2-5-3.4c-3-2.8-5.5-6.6-7.4-11.6
		c-2.1-4.8-3.1-10.9-3.1-18.5c0-7.3,0.9-13.4,2.7-18.3c1.8-4.9,4.1-8.8,6.9-11.7c2.9-2.9,6.1-5,9.6-6.3s6.9-1.9,10.4-1.9
		c8.2,0.1,15.1,2.9,20.8,8.3c5.8,5.6,8.7,13.2,8.8,23v12.3H443L443,577.9z M473.3,565.7c-0.2-5.8-1.7-10.2-4.5-13.1
		c-2.8-2.8-6.3-4.2-10.7-4.2c-4.3,0-7.9,1.4-10.7,4.2c-2.7,3-4.2,7.3-4.5,13.1H473.3z M461.4,504.5h19l-20.1,21.2h-11.9L461.4,504.5
		z"/>
	<path class="st0" d="M505.2,535.3h14.4v7.8h0.3c4.7-5.8,11-8.8,18.7-8.8c5.8,0.1,10.8,2,15.1,5.7l-10.5,12.9
		c-3-2.5-6.2-3.7-9.5-3.7c-3.7,0-6.8,1.2-9.5,3.7c-3,2.4-4.5,6.4-4.6,11.8v44.6h-14.4V535.3z"/>
	<path class="st0" d="M570.2,577.9c0,5.9,1.7,10.5,5,13.6c3.1,3.1,7.1,4.7,12.2,4.7c5.9,0,11.1-2.4,15.7-7.2l10.4,9.2
		c-7.3,8.1-15.9,12.1-25.8,12c-3.8,0-7.5-0.6-11-1.7c-1.8-0.6-3.5-1.4-5.2-2.5c-1.8-0.9-3.5-2-5-3.4c-3-2.8-5.5-6.6-7.4-11.6
		c-2.1-4.8-3.1-10.9-3.1-18.5c0-7.3,0.9-13.4,2.7-18.3c1.8-4.9,4.1-8.8,6.9-11.7c2.9-2.9,6.1-5,9.6-6.3s6.9-1.9,10.4-1.9
		c8.2,0.1,15.1,2.9,20.8,8.3c5.8,5.6,8.7,13.2,8.8,23v12.3H570.2L570.2,577.9z M600.5,565.7c-0.2-5.8-1.7-10.2-4.5-13.1
		c-2.8-2.8-6.3-4.2-10.7-4.2c-4.3,0-7.9,1.4-10.7,4.2c-2.7,3-4.2,7.3-4.5,13.1H600.5z"/>
	<path class="st0" d="M632.4,535.3h14.4v7.8h0.3c4.7-5.8,10.9-8.8,18.6-8.8c5.9,0,11.4,2.2,16.3,6.5c4.9,4.4,7.4,10.8,7.7,19.3v49.2
		h-14.4v-44.1c0-5.2-1.3-9.1-4-11.9c-2.6-2.8-6-4.1-10.2-4.1c-4.1,0-7.6,1.4-10.2,4.1c-2.7,2.7-4.1,6.7-4.1,11.9v44.1h-14.4
		L632.4,535.3L632.4,535.3z"/>
	<path class="st0" d="M763.6,597.4c-3.1,3.7-6.8,6.7-11.1,9c-4.2,2.4-9.1,3.7-14.7,3.8c-8.5,0-15.9-3-22.3-8.9
		c-6.6-5.9-10-15.6-10.2-28.9c0.2-13.5,3.6-23.2,10.2-29.2c6.4-5.9,13.8-8.9,22.3-8.8c5.6,0.1,10.5,1.3,14.7,3.6s7.9,5.4,11,9.3
		L753,557c-3.6-5-8.5-7.6-14.6-7.8c-12.2-0.2-18.5,7.5-18.7,23.2c0.2,15.5,6.4,23.2,18.6,23c6.1-0.1,10.9-2.7,14.6-7.7L763.6,597.4z
		"/>
	<path class="st0" d="M786.5,577.9c0,5.9,1.7,10.5,5,13.6c3.1,3.1,7.1,4.7,12.2,4.7c5.9,0,11.1-2.4,15.7-7.2l10.4,9.2
		c-7.3,8.1-15.9,12.1-25.8,12c-3.8,0-7.5-0.6-11-1.7c-1.8-0.6-3.5-1.4-5.2-2.5c-1.8-0.9-3.5-2-5-3.4c-3-2.8-5.5-6.6-7.4-11.6
		c-2.1-4.8-3.1-10.9-3.1-18.5c0-7.3,0.9-13.4,2.7-18.3c1.8-4.9,4.1-8.8,6.9-11.7c2.9-2.9,6.1-5,9.6-6.3s6.9-1.9,10.4-1.9
		c8.2,0.1,15.1,2.9,20.8,8.3c5.8,5.6,8.7,13.2,8.8,23v12.3H786.5L786.5,577.9z M816.8,565.7c-0.2-5.8-1.7-10.2-4.5-13.1
		c-2.8-2.8-6.3-4.2-10.7-4.2c-4.3,0-7.9,1.4-10.7,4.2c-2.7,3-4.2,7.3-4.5,13.1H816.8z"/>
	<path class="st0" d="M850.8,586.7c5.9,6.3,13.4,9.5,22.7,9.5c4.2,0,7.5-0.8,10.2-2.5c2.6-1.7,3.9-4,3.9-7c0-2.7-0.8-4.5-2.4-5.6
		c-1.6-1.1-3.8-1.7-6.4-1.8l-12.7-1.1c-6-0.6-11-2.7-14.7-6.3c-3.9-3.5-5.9-8.4-6-14.8c0.1-7.6,2.7-13.3,7.8-17.1
		c5-3.8,11.3-5.7,18.9-5.7c3.3,0,6.3,0.2,8.9,0.6c2.6,0.5,5.1,1.1,7.4,2c4.4,1.9,8.4,4.3,11.9,7.5l-8.9,10.8
		c-2.8-2.1-5.7-3.8-8.8-5.1c-3-1.2-6.6-1.8-10.5-1.8c-4.5,0-7.7,0.8-9.5,2.5c-1.9,1.7-2.8,3.8-2.8,6.4c-0.1,1.7,0.6,3.1,2.1,4.4
		c1.4,1.4,3.8,2.3,7.3,2.6l11.9,0.9c7.5,0.6,12.9,2.9,16.2,7c3.1,4,4.6,9.1,4.6,15.2c-0.1,7.2-2.9,12.7-8.5,16.6
		c-5.5,4-12.6,6-21.2,6.1c-11.7,0-22.2-4.4-31.6-13.3L850.8,586.7z"/>
</g>
<g>
	<path class="st1" d="M221.3,632.5c1.8,0.6,3.8,1,5.8,1.4c1.7,0.4,3.6,0.8,5.7,1c2.1,0.3,4.3,0.4,6.5,0.4c3.9,0,5.8-1.4,5.8-4.3
		c0-1.1-0.6-2.2-1.8-3.3c-1.2-1.1-2.7-2.4-4.5-3.8c-1.8-1.4-3.7-2.9-5.8-4.6s-4-3.6-5.8-5.8c-1.8-2.2-3.3-4.6-4.5-7.3
		c-1.2-2.7-1.8-5.8-1.8-9.4c0-3.9,0.7-7.4,2.1-10.4c1.4-3,3.4-5.5,5.9-7.5s5.5-3.5,8.9-4.6c3.4-1,7-1.6,10.9-1.6c2,0,4,0.1,6,0.3
		s3.8,0.4,5.4,0.6c1.8,0.3,3.6,0.5,5.4,0.8v23.5c-0.7-0.1-1.4-0.2-2.3-0.3c-0.7-0.1-1.4-0.2-2.3-0.3c-0.8-0.1-1.7-0.1-2.6-0.1
		c-0.5,0-1.1,0-1.9,0.1c-0.8,0-1.5,0.1-2.1,0.3c-0.7,0.2-1.3,0.5-1.8,0.9c-0.5,0.4-0.8,1-0.8,1.8c0,0.7,0.6,1.5,1.7,2.5
		c1.1,1,2.5,2.2,4.1,3.5c1.6,1.3,3.4,2.9,5.4,4.6c2,1.8,3.8,3.8,5.4,6c1.6,2.3,3,4.8,4.1,7.7c1.1,2.8,1.7,6,1.7,9.5
		c0,3.7-0.6,7.1-1.8,10.4c-1.2,3.2-3,6-5.5,8.4c-2.5,2.4-5.6,4.3-9.5,5.7c-3.9,1.4-8.4,2.1-13.7,2.1c-3.2,0-6.1-0.1-8.9-0.4
		c-2.7-0.3-5.1-0.6-7.2-1.1c-2.4-0.4-4.6-0.9-6.7-1.5v-25.2H221.3z M231.9,647.6c1.2,0.3,2.4,0.5,3.8,0.6c1.2,0.2,2.4,0.3,3.7,0.4
		c1.3,0.1,2.6,0.2,4,0.2c2.3,0,4.6-0.3,6.8-0.8s4.2-1.4,6-2.7c1.8-1.3,3.2-2.9,4.2-4.8c1-2,1.6-4.4,1.6-7.2c0-2.4-0.6-4.7-1.8-6.9
		c-1.2-2.2-2.8-4.3-4.6-6.3s-3.9-3.9-6-5.8c-2.1-1.8-4.1-3.7-6-5.6s-3.4-3.8-4.6-5.7c-1.2-1.9-1.8-3.8-1.8-5.8c0-3,1-5.3,2.9-7
		c1.9-1.6,5-2.4,9.3-2.4c0.7,0,1.4,0,2.1,0.1c0.7,0,1.4,0.1,2.1,0.2c0.7,0.1,1.3,0.1,2,0.1v-3.3c-0.6,0-1.2,0-1.9-0.1
		c-0.6-0.1-1.2-0.1-1.9-0.2c-0.7,0-1.4-0.1-2.2-0.1c-4.5,0-8.2,1-11.2,3.1c-2.9,2.1-4.4,5.3-4.4,9.6c0,2.3,0.6,4.5,1.8,6.6
		c1.2,2.1,2.8,4.1,4.6,6c1.9,2,3.9,3.9,6,5.7c2.1,1.8,4.1,3.7,6,5.6s3.4,3.8,4.6,5.8c1.2,2,1.8,4.1,1.8,6.3c0,4-1.4,7.1-4.1,9.2
		c-2.7,2.1-6.5,3.1-11.2,3.1c-2.8,0-5.4-0.2-7.8-0.6c-1.3-0.2-2.5-0.4-3.6-0.6v3.3H231.9z"/>
	<path class="st2" d="M284.1,569.1h12.4v12.8l-12.4,9.3V569.1z"/>
</g>
<g>
	<path class="st1" d="M299.2,590.2h12.4v63.7h-12.4V590.2z"/>
	<path class="st1" d="M328.9,590.2h12.4v6.7h0.2c4.1-5,9.4-7.5,16-7.5c5.1,0,9.8,1.9,14,5.6c4.2,3.8,6.4,9.3,6.6,16.6v42.3h-12.4
		V616c0-4.5-1.1-7.9-3.4-10.2c-2.3-2.4-5.2-3.6-8.7-3.6c-3.6,0-6.5,1.2-8.8,3.6c-2.3,2.3-3.5,5.7-3.5,10.2v37.9h-12.4L328.9,590.2
		L328.9,590.2z"/>
	<path class="st1" d="M398.2,634.5c5,5.4,11.6,8.2,19.5,8.2c3.6,0,6.5-0.7,8.8-2.1c2.3-1.4,3.4-3.4,3.4-6c0-2.3-0.7-3.9-2-4.8
		c-1.4-0.9-3.2-1.5-5.5-1.5l-11-1c-5.2-0.5-9.4-2.3-12.7-5.4c-3.3-3-5-7.3-5.1-12.7c0.1-6.5,2.3-11.4,6.7-14.7
		c4.3-3.3,9.7-4.9,16.3-4.9c2.9,0,5.4,0.2,7.7,0.6c2.3,0.4,4.4,1,6.4,1.7c3.8,1.6,7.2,3.7,10.2,6.4l-7.7,9.3
		c-2.4-1.8-4.9-3.2-7.6-4.4c-2.6-1-5.6-1.5-9-1.5c-3.9,0-6.6,0.7-8.2,2.1c-1.6,1.4-2.4,3.3-2.4,5.5c-0.1,1.4,0.5,2.7,1.8,3.7
		c1.2,1.2,3.3,1.9,6.3,2.3l10.2,0.8c6.4,0.5,11.1,2.5,13.9,6c2.7,3.4,4,7.8,4,13.1c-0.1,6.2-2.5,11-7.3,14.3
		c-4.8,3.4-10.8,5.2-18.2,5.3c-10.1,0-19.1-3.8-27.2-11.4L398.2,634.5z"/>
	<path class="st1" d="M456.7,590.2H469v6.6c4.1-4.7,9.4-7.2,15.9-7.4c7.6,0.2,13.1,3,16.6,8.3c1.7,2,2.9,4.6,3.5,7.9
		c0.6,3.2,0.9,8.7,0.9,16.4c0,7.5-0.3,12.9-0.9,16.2s-1.8,5.9-3.5,8c-1.7,2.5-3.9,4.4-6.7,5.9c-2.7,1.5-6,2.3-9.9,2.4
		c-3.2,0-6-0.7-8.5-2.1c-2.7-1.3-5.2-3.1-7.4-5.4v32.5h-12.4v-89.3H456.7z M481.2,641.9c2.9,0,5.2-0.6,7-1.7
		c1.7-1.2,2.9-2.7,3.6-4.6c0.8-1.9,1.3-4.1,1.6-6.4c0.1-2.3,0.1-4.7,0.1-7.1c0-2.5,0-5-0.1-7.4c-0.3-2.4-0.8-4.6-1.6-6.4
		c-0.7-1.9-1.9-3.4-3.6-4.6c-1.7-1-4-1.5-7-1.5c-2.8,0-5,0.6-6.6,1.8c-1.7,1.2-3,2.7-3.7,4.7c-0.8,1.9-1.2,4-1.5,6.3
		c-0.2,2.4-0.4,4.8-0.4,7.2c0,2.3,0.1,4.5,0.4,6.8c0.2,2.4,0.7,4.5,1.5,6.5c0.8,1.9,2,3.5,3.7,4.7
		C476.2,641.3,478.4,641.9,481.2,641.9z"/>
	<path class="st1" d="M522.2,590.2h12.4v63.7h-12.4V590.2z"/>
	<path class="st1" d="M552,590.2h12.4v6.7h0.3c4.1-5,9.4-7.5,16-7.5c5,0.1,9.3,1.7,13,4.9l-9,11.1c-2.6-2.1-5.3-3.2-8.1-3.2
		c-3.2,0-5.9,1.1-8.1,3.2c-2.5,2.1-3.8,5.5-3.9,10.1v38.4H552V590.2z"/>
	<path class="st1" d="M607.9,626.9c0,5.1,1.4,9,4.3,11.7c2.7,2.7,6.1,4.1,10.5,4.1c5,0,9.5-2.1,13.5-6.2l9,7.9
		c-6.3,6.9-13.7,10.4-22.2,10.3c-3.2,0-6.4-0.5-9.5-1.5c-1.5-0.5-3-1.2-4.5-2.1c-1.5-0.8-3-1.7-4.3-2.9c-2.6-2.4-4.7-5.7-6.4-9.9
		c-1.8-4.1-2.7-9.4-2.7-15.9c0-6.3,0.8-11.5,2.3-15.7c1.5-4.3,3.5-7.6,5.9-10.1c2.5-2.5,5.2-4.3,8.3-5.4c3-1.1,6-1.7,8.9-1.7
		c7,0.1,13,2.5,17.9,7.2c4.9,4.8,7.5,11.4,7.5,19.8V627L607.9,626.9L607.9,626.9z M634,616.4c-0.2-5-1.4-8.7-3.9-11.3
		c-2.4-2.4-5.4-3.6-9.2-3.6c-3.7,0-6.8,1.2-9.2,3.6c-2.3,2.5-3.6,6.3-3.9,11.3H634z"/>
	<path class="st1" d="M661.4,590.2h12.4v6.7h0.3c4.1-5,9.4-7.5,16-7.5c5,0.1,9.3,1.7,13,4.9l-9,11.1c-2.6-2.1-5.3-3.2-8.1-3.2
		c-3.2,0-5.9,1.1-8.1,3.2c-2.5,2.1-3.8,5.5-3.9,10.1v38.4h-12.4v-63.7H661.4z"/>
</g>
</svg>
